<?xml version="1.0" standalone="no"?>
<!DOCTYPE svg PUBLIC "-//W3C//DTD SVG 20010904//EN"
 "http://www.w3.org/TR/2001/REC-SVG-20010904/DTD/svg10.dtd">
<svg version="1.0" xmlns="http://www.w3.org/2000/svg"
 width="558.000000pt" height="558.000000pt" viewBox="0 0 558.000000 558.000000"
 preserveAspectRatio="xMidYMid meet">
<metadata>
Created by potrace 1.11, written by Peter Selinger 2001-2013
</metadata>
<g transform="translate(0.000000,558.000000) scale(0.100000,-0.100000)"
fill="#000000" stroke="none">
<path d="M2748 3975 c-2 -1 -28 -5 -59 -8 -93 -10 -201 -58 -254 -112 -22 -22
-43 -63 -70 -140 -23 -64 -28 -99 -30 -175 -1 -107 9 -180 27 -192 23 -13 30
9 33 100 2 53 9 101 18 118 8 16 22 65 31 109 9 44 21 84 26 89 6 6 6 -4 0
-25 -5 -19 -11 -52 -14 -74 -2 -22 -13 -64 -25 -93 -17 -43 -21 -72 -19 -144
1 -87 0 -92 -25 -113 -29 -26 -29 -37 -2 -83 24 -40 48 -47 100 -28 59 21 80
7 91 -60 3 -22 14 -48 25 -59 17 -19 17 -23 3 -43 -13 -18 -13 -26 -4 -38 18
-21 38 0 32 32 -3 19 -1 25 9 22 7 -2 13 -19 13 -39 1 -34 3 -35 47 -30 7 0 9
13 7 31 -3 19 0 30 7 30 7 0 11 -14 11 -32 -1 -28 2 -33 24 -33 22 0 25 4 23
33 -1 23 3 32 13 32 12 0 14 -7 9 -29 -7 -31 11 -46 41 -34 12 4 14 14 10 34
-5 24 -2 29 14 29 16 0 20 -7 20 -31 0 -26 3 -30 23 -27 19 3 22 9 22 46 1 33
7 48 27 67 14 13 29 38 33 54 9 44 26 52 96 49 61 -3 64 -2 78 27 24 50 22 74
-7 92 -15 9 -29 19 -32 20 -2 2 -7 34 -11 71 -4 37 -10 75 -14 85 -5 12 -2 17
9 17 13 0 16 -13 16 -75 0 -61 3 -77 16 -82 28 -11 58 63 63 154 3 61 -30 187
-66 253 -52 95 -163 182 -249 195 -47 7 -132 13 -136 10z m-80 -471 c19 -13
22 -23 21 -60 -3 -49 -35 -90 -93 -121 -57 -30 -102 12 -112 103 -6 59 2 83
29 94 30 13 127 2 155 -16z m342 -4 c22 -16 25 -24 23 -80 -1 -69 -15 -91 -57
-95 -38 -5 -117 51 -139 98 -16 35 -17 41 -3 62 10 15 32 27 58 33 51 11 84 6
118 -18z m-213 -168 c41 -77 47 -118 21 -144 l-20 -20 -24 36 c-24 35 -44 40
-44 11 0 -17 -27 -27 -33 -12 -2 7 2 35 10 62 7 28 18 67 24 88 5 20 16 37 22
37 7 0 27 -26 44 -58z"/>
<path d="M1490 3640 c0 -77 55 -217 121 -312 11 -14 19 -31 19 -36 0 -6 3 -12
8 -14 4 -1 29 -32 56 -68 47 -61 210 -230 286 -295 126 -109 314 -240 430
-301 30 -16 57 -31 60 -34 7 -7 218 -106 305 -142 90 -38 445 -158 445 -151 0
3 7 0 15 -7 12 -10 15 -9 16 6 5 82 7 81 -261 174 -196 68 -236 85 -400 169
-139 72 -270 150 -351 211 -64 48 -141 121 -135 127 3 3 15 -5 28 -17 127
-121 429 -304 648 -393 128 -52 417 -147 446 -147 27 0 84 29 84 42 0 4 -39
19 -87 34 -260 78 -611 229 -813 348 -106 62 -312 205 -340 236 -3 3 -27 23
-55 45 -74 59 -245 230 -312 311 -32 39 -71 87 -86 105 -15 19 -46 62 -69 97
-23 34 -46 62 -50 62 -4 0 -8 -23 -8 -50z"/>
<path d="M4022 3627 c-23 -34 -49 -71 -59 -82 -10 -11 -28 -33 -41 -49 -92
-119 -248 -279 -372 -382 -90 -75 -249 -192 -290 -214 -14 -7 -27 -16 -30 -20
-14 -19 -398 -217 -412 -212 -18 5 -6 -16 15 -26 69 -36 73 -35 171 18 111 62
107 59 236 145 115 77 121 80 154 111 12 12 33 27 47 34 13 7 -3 -13 -36 -44
-33 -31 -63 -56 -67 -56 -3 0 -13 -6 -20 -13 -33 -33 -237 -156 -341 -206 -54
-26 -52 -31 25 -56 45 -16 48 -16 100 11 482 243 955 745 976 1036 3 39 1 68
-5 68 -5 0 -28 -28 -51 -63z m-65 -231 c-14 -24 -51 -79 -83 -122 -61 -82
-220 -251 -227 -244 -3 3 35 47 83 98 92 96 180 207 221 279 13 23 25 40 27
38 3 -2 -7 -24 -21 -49z"/>
<path d="M3029 3162 c-21 -22 -46 -96 -54 -158 -3 -29 -14 -57 -27 -71 -26
-28 -42 -30 -35 -3 3 13 -1 21 -13 25 -30 9 -51 -5 -48 -33 2 -15 -3 -27 -11
-30 -10 -3 -12 1 -8 17 7 27 -16 51 -42 44 -15 -4 -18 -12 -16 -34 3 -20 0
-29 -10 -29 -11 0 -13 8 -9 29 5 23 2 29 -17 34 -31 8 -39 1 -39 -34 0 -20 -4
-29 -12 -27 -7 3 -12 18 -13 34 0 24 -4 29 -25 29 -18 0 -26 -6 -28 -22 -4
-27 -15 -29 -36 -8 -15 15 -36 76 -36 103 0 28 -33 111 -49 127 -21 18 -51 10
-51 -14 1 -9 7 -38 14 -65 7 -28 12 -74 11 -103 -1 -50 1 -55 39 -90 23 -20
60 -54 83 -76 l42 -40 126 -1 126 -2 39 42 c21 23 54 53 71 67 21 17 34 35 35
54 3 36 8 63 28 138 21 80 21 115 -1 114 -10 0 -25 -8 -34 -17z"/>
<path d="M2000 2609 c-19 -4 -43 -17 -52 -29 -40 -49 -6 -140 52 -140 29 0 60
22 60 42 0 19 34 -19 54 -59 10 -21 24 -50 32 -64 12 -23 49 -146 60 -196 12
-60 41 -100 85 -120 45 -20 138 0 140 30 0 7 2 21 4 32 6 28 -16 66 -43 76
-17 7 -28 3 -44 -13 l-21 -21 -21 26 c-12 15 -23 45 -24 69 -2 24 -5 52 -6 63
-1 11 6 34 16 51 20 34 16 44 -18 44 -23 0 -45 25 -74 84 -42 84 -131 140
-200 125z"/>
<path d="M3503 2609 c-58 -12 -112 -58 -148 -126 -21 -41 -60 -80 -87 -89 -20
-6 -24 -20 -7 -26 30 -10 22 -156 -11 -198 -19 -23 -21 -24 -33 -8 -21 27 -71
28 -82 1 -14 -34 -16 -73 -6 -92 16 -30 72 -44 120 -31 55 15 85 55 106 142
35 141 94 281 123 293 8 3 21 -4 29 -15 30 -42 111 -12 114 43 2 43 -3 62 -23
83 -23 26 -51 33 -95 23z"/>
<path d="M2439 2521 c-83 -29 -78 -28 -137 -43 -50 -12 -60 -24 -39 -45 14
-15 76 -20 117 -10 38 9 220 68 220 71 0 3 -20 15 -44 29 l-43 24 -74 -26z"/>
<path d="M2490 2434 c-147 -52 -167 -61 -176 -83 -12 -30 -12 -62 0 -67 7 -3
93 22 192 55 177 58 276 100 241 101 -10 0 -35 9 -57 20 -22 11 -47 20 -57 19
-10 0 -74 -20 -143 -45z"/>
<path d="M1959 2400 c-17 -10 -15 -55 2 -66 5 -3 9 -10 9 -17 0 -17 -18 4 -38
44 -12 23 -25 35 -43 37 -38 4 -50 -16 -38 -67 13 -56 37 -88 74 -97 35 -8
188 -8 214 1 23 7 22 55 -3 102 -9 18 -16 36 -15 40 1 9 -29 21 -53 22 -22 1
-23 -21 -3 -59 24 -46 9 -35 -21 15 -14 25 -30 45 -34 45 -5 0 -14 2 -22 5 -7
2 -20 0 -29 -5z"/>
<path d="M3452 2387 c-42 -44 -67 -137 -41 -152 6 -4 58 -7 115 -7 105 0 149
12 159 45 2 7 6 21 11 32 4 11 9 34 11 52 3 25 0 33 -16 38 -32 10 -58 -3 -71
-35 -7 -16 -18 -35 -26 -41 -11 -9 -11 -6 1 17 21 41 19 61 -7 66 -39 7 -56
-2 -72 -37 -22 -46 -39 -55 -21 -11 14 33 14 36 -4 45 -14 8 -23 5 -39 -12z"/>
<path d="M1713 2390 c-83 -33 -67 -191 22 -220 43 -14 91 1 118 37 23 30 16
40 -15 19 -21 -14 -68 -19 -68 -7 0 2 16 19 35 37 31 28 35 37 30 66 -10 60
-65 91 -122 68z"/>
<path d="M3746 2381 c-41 -45 -33 -121 14 -136 11 -4 19 -12 17 -18 -5 -16
-37 -16 -64 0 -41 24 -46 9 -10 -32 58 -67 183 -20 188 70 3 56 -1 74 -24 101
-29 33 -97 42 -121 15z"/>
</g>
</svg>
